<svg width="370" height="153" viewBox="0 0 370 153" fill="none" xmlns="http://www.w3.org/2000/svg">
<path fill-rule="evenodd" clip-rule="evenodd" d="M119.86 11.43C127 9 127.59 0 120.51 0C118.56 0 116.23 1.37 114.63 4.17L105 20.73C104.603 21.4355 104.144 22.1047 103.63 22.73C101.17 19.34 101.89 14.28 105.34 12.06L104 10.27C96.54 15.02 98.73 28.75 111.18 28.75C121.78 28.74 126.7 16 119.86 11.43ZM111.07 26C109.282 26.0455 107.513 25.6214 105.94 24.77C106.603 23.978 107.199 23.1317 107.72 22.24L113.72 11.87L114.72 11.97C123 13.72 119.69 26 111.07 26ZM117.77 4.86L114.9 9.79C118.52 9.72 120.54 8.93 121.91 6.36C123.69 3.01 120.37 0.38 117.77 4.86Z" fill="white"/>
<path fill-rule="evenodd" clip-rule="evenodd" d="M258.97 19.27L259.21 19C259.825 19.1652 260.341 19.5831 260.63 20.15C257.72 23.54 254.34 26.62 249.17 26.72H248.96C247.149 26.7914 245.53 25.6 245.06 23.85L247.06 22.85C247.259 23.3878 247.772 23.7449 248.345 23.7449C248.918 23.7449 249.431 23.3878 249.63 22.85L255 13.54C255.93 11.93 253.46 9.94 249.46 15.35L238.82 33.86H235.23L241.71 22.62C240.516 23.187 239.22 23.5067 237.9 23.56H237.11C233.25 28.43 226.96 27.55 226.96 23.01C224.76 25.12 222.48 26.68 220.41 26.68C217.54 26.68 216.47 24.25 217.98 21.62L222.6 13.62C224.14 10.97 221.72 10.09 216.24 16.97L210.84 26.38H207.25L208.47 24.26C206.863 25.4746 204.986 26.2841 203 26.62H202.9C202.568 26.6607 202.234 26.684 201.9 26.69C200.089 26.7614 198.47 25.57 198 23.82L200.17 22.66C200.435 23.3795 201.087 23.8844 201.85 23.96C204.07 23.96 204.49 21.0477 204.927 18.0062C205.15 16.4587 205.378 14.8777 205.85 13.63C205.643 13.9054 205.422 14.2025 205.188 14.5172L205.188 14.5178C203.994 16.1225 202.462 18.1822 200.79 20.13C197.85 23.55 194.39 26.7 191.52 26.7C188.65 26.7 187.58 24.28 189.09 21.64L192.85 15.11C193.208 14.4657 193.124 13.6659 192.64 13.11L192.16 12.53L191.508 13.4069C189.074 16.6789 187.855 18.3176 186.28 20.16C183.28 23.58 179.28 26.73 175.28 26.73C172.14 26.73 170.27 24.78 170.46 22.21C169.021 23.0463 167.402 23.5263 165.74 23.61C165.477 23.6274 165.213 23.6274 164.95 23.61C163.558 25.568 161.349 26.7833 158.95 26.91C156.65 26.91 154.84 25.54 154.84 23.11C152.64 25.21 150.36 26.76 148.3 26.76C145.43 26.76 144.37 24.34 145.87 21.7L149.63 15.17C149.988 14.5257 149.904 13.7259 149.42 13.17L148.94 12.59L148.288 13.4661C145.854 16.7387 144.635 18.3775 143.06 20.22C140.12 23.64 136.73 26.79 133.79 26.79C131.98 26.79 130.88 25.83 130.71 24.46C129 25.87 127.22 26.79 125.78 26.79C122.91 26.79 121.84 24.37 123.35 21.73L128.35 13.11C129.86 10.51 132.52 9 134.44 9C136.413 8.96352 138.067 10.4814 138.2 12.45H140.2L134.45 22.51C133.63 23.96 134.07 24.51 134.86 24.51C136.44 24.51 138.93 22.17 141.5 19.17L141.74 18.9C144.04 16.13 146.17 13.12 147.74 10.9L147.43 10.49C146.16 8.85 146.35 6.83 148.35 5.02L150.2 7.02L150.09 7.11C149.805 7.35811 149.634 7.71146 149.615 8.08874C149.596 8.46601 149.731 8.83472 149.99 9.11L151.99 11.5C153.15 12.9 153.73 14.16 152.5 16.32L148.94 22.55C148.12 24 148.56 24.55 149.35 24.55C150.93 24.55 153.42 22.21 155.99 19.21L156.18 19L166.15 1.78H169.78L165.26 9.61C165.939 9.11664 166.751 8.84114 167.59 8.82H168C168.794 8.86888 169.537 9.23143 170.064 9.82784C170.591 10.4242 170.859 11.2056 170.81 12C170.715 13.4544 170.254 14.8612 169.47 16.09L166.12 21.87C168.194 21.7651 170.135 20.8145 171.49 19.24L171.7 19L175.17 13.03C176.449 10.5202 179.023 8.93444 181.84 8.92C184.75 8.92 186.6 11.39 184.68 14.67L184.17 15.56C181.5 20.17 177.19 20.66 174.9 19.66L174.56 20.28C172.92 23.15 174.22 24.52 176.41 24.52C178.91 24.52 182.19 22.18 184.76 19.18L185 18.91C187.256 16.2047 189.331 13.2705 190.889 11.0668L191 10.91L190.7 10.5C189.43 8.86 189.62 6.84 191.62 5.03L193.47 7.03L193.36 7.12C193.077 7.36952 192.907 7.72362 192.89 8.10087C192.873 8.47812 193.01 8.84604 193.27 9.12L195.27 11.51C196.43 12.91 197.01 14.17 195.78 16.33L192.22 22.56C191.4 24.01 191.84 24.56 192.63 24.56C194.21 24.56 196.7 22.22 199.27 19.22L199.51 18.95C202.059 15.9637 204.615 12.4035 206.295 10.0627C206.731 9.45621 207.107 8.93157 207.41 8.52L210.08 9.96C208.75 12.7236 208.316 15.7271 207.927 18.4191L207.927 18.4193L207.927 18.4195L207.927 18.4197L207.927 18.4199L207.927 18.4201L207.927 18.4204C207.676 20.1599 207.444 21.7694 207 23.1C208.579 22.0002 210.007 20.6992 211.25 19.23L211.45 19L221.32 1.72H224.88L219.2 11.61C221.02 9.76 222.66 8.91 224.2 8.91C226.19 8.91 227.66 10.86 226.12 13.56L220.99 22.56C220.17 24.01 220.61 24.56 221.4 24.56C222.98 24.56 225.47 22.22 228.04 19.22L228.23 19L229.69 16.52L231.44 13.52C233.49 9.96 235.61 8.87 238.35 8.87C241.7 8.87 243.69 12.39 241.53 16.12L238.18 21.9C240.252 21.787 242.19 20.838 243.55 19.27L243.79 19L249.35 9.35H252.91L252.19 10.58C255.82 7.33 261.19 9.22 257.87 14.86L253.94 21.6C253.719 21.9522 253.51 22.3594 253.289 22.7877L253.289 22.7882L253.289 22.7887L253.288 22.7892L253.288 22.7896L253.288 22.7899L253.288 22.7902C253.039 23.2732 252.777 23.7828 252.47 24.27C255.018 23.168 257.251 21.4498 258.97 19.27ZM181.77 14.75C183.89 11.06 180.26 10.48 178.21 14L175.92 18C177.26 18.48 179.55 18.55 181.26 15.64L181.77 14.75ZM132.6 19.61C130.44 23 128.32 24.61 126.85 24.61C126.06 24.61 125.62 24.06 126.44 22.61L131.44 13.95C133.36 10.63 137.15 11.49 135.44 14.7L132.6 19.61ZM158.362 24.1082C158.638 24.37 159.012 24.5016 159.39 24.47L159.38 24.43C160.518 24.3493 161.536 23.6931 162.08 22.69C160.829 21.8439 160.005 20.4986 159.82 19L158.57 21.25C158.214 21.806 158.001 22.4416 157.95 23.1C157.937 23.4795 158.087 23.8464 158.362 24.1082ZM163.1 21C162.1 20.2385 161.536 19.0358 161.59 17.78C161.59 15.25 164.05 11.11 166.07 11.11C166.461 11.1123 166.831 11.2825 167.088 11.5772C167.344 11.872 167.462 12.2628 167.41 12.65C167.372 13.4039 167.138 14.1347 166.73 14.77L163.1 21ZM236 19.22H236.18L238.76 14.75C240.92 11.05 237.5 9.38 235 13.62L233.32 16.54L230.62 21.23C228.5 24.93 232.57 25.47 234.25 22.6V22.53C234.03 22.1681 233.913 21.7534 233.91 21.33C233.907 20.773 234.126 20.2378 234.518 19.8421C234.91 19.4464 235.443 19.2226 236 19.22ZM-0.00402832 73.257L5.70997 67.544L11.422 73.259L5.70797 78.971L-0.00402832 73.257ZM357.733 67.57L352.019 73.283L357.731 78.997L363.446 73.285L357.733 67.57Z" fill="white"/>
<path fill-rule="evenodd" clip-rule="evenodd" d="M61.69 62.32V75C61.696 76.3704 61.0731 77.6677 60 78.52C61.0408 79.4696 61.6509 80.8016 61.69 82.21V96.31C61.6524 98.8127 59.6327 100.832 57.13 100.87H41.49V98.79H55C57.5222 98.7794 59.5719 96.7519 59.61 94.23V80.13C59.5775 78.7263 58.9788 77.3955 57.95 76.44C59.0091 75.584 59.6202 74.2918 59.61 72.93V60.25C59.608 59.555 59.4436 58.8702 59.13 58.25C60.6874 59.01 61.6793 60.5871 61.69 62.32ZM48.88 73.48H46.8V63.07H52.15V65.16H48.88V73.48Z" fill="#636466"/>
<path fill-rule="evenodd" clip-rule="evenodd" d="M81.8899 91.34H79.8099V63.07H85.1599V65.16H81.8899V91.34ZM48.8799 91.34H46.7999V80.87H52.1499V82.95H48.8799V91.34Z" fill="#636466"/>
<path fill-rule="evenodd" clip-rule="evenodd" d="M127.66 78.46C127.662 80.2025 126.651 81.7872 125.07 82.52L128.14 100.87H120.75L120.4 98.79H126.08L123 80.44C124.578 79.7017 125.582 78.1122 125.57 76.37V60.22C125.565 59.5254 125.401 58.8413 125.09 58.22C126.661 58.982 127.659 60.574 127.66 62.32V78.46ZM92.14 58.25C92.4536 58.8702 92.618 59.555 92.62 60.25V94.25C92.5824 96.7527 90.5627 98.7724 88.06 98.81H77C76.3052 98.8065 75.6207 98.6423 75 98.33C75.76 99.8874 77.3371 100.879 79.07 100.89H90.15C92.6527 100.852 94.6724 98.8327 94.71 96.33V62.33C94.6989 60.5919 93.7028 59.0106 92.14 58.25ZM112.82 73.48H114.9V65.16H118.18V63.07H112.82V73.48ZM115.65 80.87H112.82V98.79H107.51V100.88H114.9V82.95H116L115.65 80.87ZM146.93 91.34H144.84V63.07H150.2V65.16H146.93V91.34Z" fill="#636466"/>
<path fill-rule="evenodd" clip-rule="evenodd" d="M157.66 60.25C157.658 59.555 157.494 58.87 157.18 58.25C158.731 59.0191 159.715 60.5987 159.72 62.33V96.33C159.682 98.8327 157.663 100.852 155.16 100.89H144.07C142.337 100.879 140.76 99.8874 140 98.33C140.621 98.6426 141.305 98.8069 142 98.81H153.1C155.603 98.7724 157.622 96.7527 157.66 94.25V60.25ZM179.94 91.34H177.85V63.07H183.21V65.16H179.94V91.34Z" fill="#636466"/>
<path fill-rule="evenodd" clip-rule="evenodd" d="M211.24 57.77V98.79H205.93V100.88H213.32V57.77H211.24ZM190.19 58.25C190.504 58.8702 190.668 59.555 190.67 60.25V94.25C190.632 96.7527 188.613 98.7724 186.11 98.81H172.55V100.89H188.19C190.693 100.852 192.712 98.8327 192.75 96.33V62.33C192.741 60.5942 191.749 59.0134 190.19 58.25ZM244.12 98.79V57.77H246.21V100.88H238.81L238.22 98.79H244.12ZM231.31 79.95V98.79H226.01V100.88H233.4V87.19L231.31 79.95ZM269.69 83H263.58C261.83 82.9911 260.242 81.975 259.5 80.39C260.121 80.7019 260.805 80.8662 261.5 80.87H269.69V83ZM266.41 85.73L264.32 86.21V91.34H266.41V85.73ZM277.14 60.25C277.138 59.555 276.974 58.8702 276.66 58.25C278.217 59.01 279.209 60.5871 279.22 62.32V71.07L271.77 72.8V70.24L277.14 69V60.25Z" fill="#636466"/>
<path fill-rule="evenodd" clip-rule="evenodd" d="M313.15 57.77H310.4L304.17 77.18L311.07 98.79H305.06L305.64 100.63L305.7 100.88H313.15L306.25 79.26L313.15 57.77ZM264.32 63.07V73.48H266.41V65.16H269.68V63.07H264.32ZM276.66 76.05C276.974 76.6702 277.138 77.355 277.14 78.05V94.25C277.102 96.7527 275.083 98.7724 272.58 98.81H261.49C260.795 98.8065 260.111 98.6423 259.49 98.33C260.25 99.8874 261.827 100.879 263.56 100.89H274.64C277.143 100.852 279.162 98.8327 279.2 96.33V80.12C279.193 78.3916 278.21 76.8157 276.66 76.05ZM297.33 80.87H298.01L299.42 85.35V100.88H292.03V98.79H297.33V80.87ZM330.53 98.79V57.77H332.61V100.88H325.23V98.79H330.53Z" fill="#636466"/>
<path d="M167.9 123.85H169.31C174.74 124.13 179 125.58 181.7 128.57C184.44 125.57 188.7 124.11 194.16 123.85H195.51C207.62 124.67 213.14 133.35 222.81 137.04C224.313 137.725 225.949 138.066 227.6 138.04C230.08 137.77 231.66 135.26 231.34 132.46C231 129.46 228.06 126.85 224.78 128.29C224.349 128.49 223.953 128.761 223.61 129.09C223.36 129.32 223.08 129.92 222.44 129.7C221.84 129.2 222.44 128.47 222.75 128.05C223.962 125.895 226.372 124.704 228.82 125.05C234.45 125.45 239.49 130.39 238.63 137.87C236.71 149 226.53 152 214.46 153H210.53C199.996 152.573 189.892 148.709 181.76 142C173.564 148.686 163.427 152.544 152.86 153H149C136.84 151.93 126.56 149 124.77 137.54C124.09 129.38 128.95 125.37 134.59 124.96C137.057 124.615 139.486 125.802 140.73 127.96C141.01 128.42 141.53 129.13 141.04 129.68C140.43 129.79 140.13 129.31 139.87 129.07C139.131 128.3 138.116 127.858 137.05 127.84C133.19 127.7 130.97 131.99 132.51 135.45C133.122 136.816 134.397 137.769 135.88 137.97C137.529 137.978 139.162 137.638 140.67 136.97C142.015 136.455 143.31 135.819 144.54 135.07C151.89 130.81 157.64 124.76 167.9 123.85V123.85Z" fill="white"/>
<path fill-rule="evenodd" clip-rule="evenodd" d="M367.347 77.192L361.634 82.906L363.72 84.992L369.433 79.277L367.347 77.192ZM15.38 77.236L9.66699 82.95L11.753 85.035L17.466 79.322L15.38 77.236Z" fill="#636466"/>
<path fill-rule="evenodd" clip-rule="evenodd" d="M88.66 56.28C88.6436 53.7684 86.6116 51.7364 84.1 51.72H73C71.7897 51.7173 70.6283 52.1969 69.7726 53.0527C68.9169 53.9084 68.4373 55.0698 68.44 56.28V90.28C68.4563 92.7916 70.4883 94.8236 73 94.84H84.1C86.6026 94.8024 88.6224 92.7827 88.66 90.28V56.28ZM54 72.48C55.0471 71.6286 55.6535 70.3496 55.65 69V56.28C55.6336 53.7684 53.6016 51.7364 51.09 51.72H35.45V94.83H51.1C53.6026 94.7924 55.6224 92.7727 55.66 90.27V76.17C55.6275 74.7663 55.0288 73.4354 54 72.48ZM42.84 59.11H48.2V69.52H42.84V59.11ZM48.2 76.91H42.84V87.38H48.2V76.91ZM81.2 59.11H75.85V87.38H81.21L81.2 59.11ZM111.71 76.91L114.71 94.83H122.08L119 76.48C120.596 75.7589 121.625 74.1718 121.63 72.42V56.28C121.638 55.0786 121.168 53.9232 120.324 53.068C119.48 52.2128 118.331 51.7279 117.13 51.72H101.49V94.83H108.88V76.91H111.71ZM114.22 59.11H108.86V69.52H114.22V59.11ZM153.7 56.28C153.684 53.7684 151.652 51.7364 149.14 51.72H149.1H138C135.503 51.7474 133.494 53.7826 133.5 56.28V90.28C133.516 92.7916 135.548 94.8236 138.06 94.84H149.14C151.643 94.8024 153.662 92.7827 153.7 90.28V56.28ZM146.24 59.11H140.88V87.38H146.24V59.11ZM186.71 56.28C186.694 53.7684 184.662 51.7364 182.15 51.72H166.51V94.84H182.15C184.653 94.8024 186.672 92.7827 186.71 90.28V56.28ZM179.26 59.11H173.9V87.38H179.26V59.11ZM207.28 51.72H199.89V94.83H207.28V51.72ZM240.17 51.72V94.83H232.78L227.36 76V94.83H220V51.72H227.33L232.75 69.39V51.72H240.17ZM273.18 74.08C273.164 71.5684 271.132 69.5364 268.62 69.52H260.39V59.11H265.75V66.73L273.2 65V56.28C273.184 53.7684 271.152 51.7364 268.64 51.72H257.54C256.333 51.7226 255.177 52.2046 254.326 53.0597C253.474 53.9149 252.997 55.0733 253 56.28V72.37C253.003 73.5767 253.485 74.733 254.34 75.5844C255.195 76.4358 256.353 76.9127 257.56 76.91H265.75V87.39H260.39V79.69L253 81.41V90.28C253.016 92.7839 255.036 94.8128 257.54 94.84H268.62C271.123 94.8024 273.142 92.7827 273.18 90.28V74.08ZM300.22 73.22L307.12 94.84H299.67L299.61 94.59L294.07 76.92H293.39V94.83H286V51.72H293.39V69.52H294L299.67 51.72H307.18L300.22 73.22ZM326.58 51.72H319.19V94.83H326.58V51.72Z" fill="white"/>
</svg>
